<?xml version="1.0" encoding="UTF-8"?>
<svg id="katman_1" data-name="katman 1" xmlns="http://www.w3.org/2000/svg" version="1.1" xmlns:xlink="http://www.w3.org/1999/xlink" viewBox="0 0 841.89 595.28">
  <defs>
    <style>
      .cls-1 {
        fill: url(#Adsız_degrade_12-9);
      }

      .cls-1, .cls-2, .cls-3, .cls-4, .cls-5, .cls-6, .cls-7, .cls-8, .cls-9, .cls-10, .cls-11, .cls-12, .cls-13, .cls-14, .cls-15 {
        stroke-width: 0px;
      }

      .cls-2 {
        fill: url(#Adsız_degrade_14);
      }

      .cls-3 {
        fill: url(#Adsız_degrade_12-8);
      }

      .cls-4 {
        fill: url(#Adsız_degrade_14-2);
      }

      .cls-5 {
        fill: url(#Adsız_degrade_12-2);
      }

      .cls-6 {
        fill: url(#Adsız_degrade_12);
      }

      .cls-7 {
        fill: url(#Adsız_degrade_12-3);
      }

      .cls-8 {
        fill: url(#Adsız_degrade_12-10);
      }

      .cls-9 {
        fill: #5898f7;
      }

      .cls-10 {
        fill: url(#Adsız_degrade_12-7);
      }

      .cls-11 {
        fill: url(#Adsız_degrade_12-4);
      }

      .cls-12 {
        fill: url(#Adsız_degrade_12-5);
      }

      .cls-13 {
        fill: url(#Adsız_degrade_12-11);
      }

      .cls-14 {
        fill: url(#Adsız_degrade_12-12);
      }

      .cls-15 {
        fill: url(#Adsız_degrade_12-6);
      }
    </style>
    <linearGradient id="Adsız_degrade_12" data-name="Adsız degrade 12" x1="215.03" y1="495.25" x2="477.32" y2="496.11" gradientTransform="translate(67.42 631.13) scale(1 -1)" gradientUnits="userSpaceOnUse">
      <stop offset=".05" stop-color="#446eff"/>
      <stop offset=".28" stop-color="#3982ff"/>
      <stop offset=".5" stop-color="#2e96ff"/>
      <stop offset=".72" stop-color="#6fadff"/>
      <stop offset=".95" stop-color="#b1c5ff"/>
    </linearGradient>
    <linearGradient id="Adsız_degrade_12-2" data-name="Adsız degrade 12" x1="170.45" y1="450" x2="434.02" y2="450.86" gradientTransform="translate(111.47 674.59) scale(1 -1)" xlink:href="#Adsız_degrade_12"/>
    <linearGradient id="Adsız_degrade_12-3" data-name="Adsız degrade 12" x1="192.21" y1="473.05" x2="455.12" y2="473.05" gradientTransform="translate(89.44 652.86) scale(1 -1)" xlink:href="#Adsız_degrade_12"/>
    <linearGradient id="Adsız_degrade_12-4" data-name="Adsız degrade 12" x1="160.84" y1="472.47" x2="424.04" y2="473.21" gradientTransform="translate(121.44 652.86) scale(1 -1)" xlink:href="#Adsız_degrade_12"/>
    <linearGradient id="Adsız_degrade_12-5" data-name="Adsız degrade 12" x1="223" y1="473.05" x2="487.41" y2="473.05" gradientTransform="translate(57.44 652.86) scale(1 -1)" xlink:href="#Adsız_degrade_12"/>
    <linearGradient id="Adsız_degrade_12-6" data-name="Adsız degrade 12" x1="193.23" y1="439.52" x2="455.12" y2="440.38" gradientTransform="translate(89.44 684.86) scale(1 -1)" xlink:href="#Adsız_degrade_12"/>
    <linearGradient id="Adsız_degrade_12-7" data-name="Adsız degrade 12" x1="193.23" y1="423" x2="455.12" y2="423.87" gradientTransform="translate(89.44 700.83) scale(1 -1)" xlink:href="#Adsız_degrade_12"/>
    <linearGradient id="Adsız_degrade_12-8" data-name="Adsız degrade 12" x1="193.23" y1="522.24" x2="455.12" y2="523.11" gradientTransform="translate(89.44 604.9) scale(1 -1)" xlink:href="#Adsız_degrade_12"/>
    <linearGradient id="Adsız_degrade_12-9" data-name="Adsız degrade 12" x1="193.23" y1="505.73" x2="455.12" y2="506.59" gradientTransform="translate(89.44 620.86) scale(1 -1)" xlink:href="#Adsız_degrade_12"/>
    <linearGradient id="Adsız_degrade_12-10" data-name="Adsız degrade 12" x1="143.6" y1="472.65" x2="405.91" y2="473.39" gradientTransform="translate(41.44 652.86) scale(1 -1)" xlink:href="#Adsız_degrade_12"/>
    <linearGradient id="Adsız_degrade_12-11" data-name="Adsız degrade 12" x1="144.16" y1="472.37" x2="407.52" y2="473.12" gradientTransform="translate(137.44 652.86) scale(1 -1)" xlink:href="#Adsız_degrade_12"/>
    <linearGradient id="Adsız_degrade_12-12" data-name="Adsız degrade 12" x1="161.96" y1="524.13" x2="417.54" y2="443.56" gradientTransform="translate(89.39 652.71) scale(1 -1)" xlink:href="#Adsız_degrade_12"/>
    <linearGradient id="Adsız_degrade_14" data-name="Adsız degrade 14" x1="148.35" y1="548.22" x2="257.3" y2="501.56" gradientTransform="translate(89.39 652.71) scale(1 -1)" gradientUnits="userSpaceOnUse">
      <stop offset="0" stop-color="#e2e7f8" stop-opacity="0"/>
      <stop offset=".25" stop-color="#c9d6fc" stop-opacity=".5"/>
      <stop offset=".5" stop-color="#b1c5ff"/>
      <stop offset=".75" stop-color="#b1c5ff" stop-opacity=".5"/>
      <stop offset="1" stop-color="#b1c5ff" stop-opacity="0"/>
    </linearGradient>
    <linearGradient id="Adsız_degrade_14-2" data-name="Adsız degrade 14" x1="392.15" y1="472.11" x2="526.58" y2="470.27" gradientTransform="translate(89.44 652.86) scale(1 -1)" xlink:href="#Adsız_degrade_14"/>
  </defs>
  <g>
    <g>
      <path class="cls-6" d="M387.77,156.63l1.44-1.44-40.63-40.63-1.44,1.44,40.63,40.63Z"/>
      <path class="cls-5" d="M438.2,202.98l-1.44,1.44,40.63,40.63,1.44-1.44-40.63-40.63Z"/>
    </g>
    <path class="cls-7" d="M412.99,87.23c-51.13,0-92.57,41.45-92.57,92.57s41.45,92.57,92.57,92.57,92.57-41.45,92.57-92.57-41.45-92.57-92.57-92.57ZM412.99,270.34c-50,0-90.53-40.53-90.53-90.53s40.53-90.53,90.53-90.53,90.53,40.53,90.53,90.53-40.53,90.53-90.53,90.53Z"/>
    <path class="cls-11" d="M477.08,278.48h2.03V81.14h-2.03v197.34Z"/>
    <path class="cls-12" d="M346.87,278.48h2.03V81.14h-2.03v197.34Z"/>
    <path class="cls-15" d="M314.32,245.93h197.34v-2.03h-197.34v2.03Z"/>
    <g>
      <path class="cls-10" d="M411.97,311.03h2.03v-67.28h-2.03v67.28Z"/>
      <path class="cls-3" d="M411.97,115.86h2.03V48.58h-2.03v67.28Z"/>
    </g>
    <path class="cls-1" d="M314.32,115.72h197.34v-2.03h-197.34v2.03Z"/>
    <g>
      <path class="cls-8" d="M281.77,180.83h67.14v-2.03h-67.14v2.03Z"/>
      <path class="cls-13" d="M477.08,180.83h67.13v-2.03h-67.13v2.03Z"/>
    </g>
    <path class="cls-14" d="M503.63,179.49c-4.64-.26-8.94-.56-12.2-.99v-.03c-4.2-.62-8.3-1.52-12.31-2.7,0,0-.56-.17-1.09-.33-.48-.15-.94-.29-.94-.29-2.58-.83-5.12-1.77-7.62-2.83-11.26-4.94-21.06-11.57-29.39-19.9-8.33-8.33-14.96-18.13-19.9-29.39-1.06-2.5-2.01-5.04-2.83-7.62l-.62-2.03c-1.18-4.01-2.08-8.12-2.7-12.31h-.11c-.44-3.29-.75-7.63-1.01-12.3-.26,4.55-.59,8.79-1.05,12.44h.07c-.64,4.14-1.55,8.21-2.75,12.18l-.64,2.03c-.85,2.58-1.83,5.12-2.92,7.62-4.7,11.07-11.12,20.73-19.25,28.97l-1.44,1.43c-8.11,7.86-17.56,14.15-28.36,18.89-2.5,1.06-5.04,2.01-7.62,2.83l-2.03.62c-4.01,1.18-8.12,2.08-12.31,2.7l-.11,1.02.11-1.02c-3.29.45-7.7.76-12.43,1.02,4.52.26,8.73.59,12.36,1.04,4.76.72,9.4,1.81,13.93,3.28,2.74.89,5.44,1.92,8.1,3.08,11.26,4.78,21.06,11.34,29.39,19.67,8.33,8.33,14.89,18.13,19.67,29.39,1.1,2.5,2.07,5.04,2.92,7.62l.64,2.03c1.21,3.98,2.12,8.05,2.76,12.22h-.07c.45,3.64.78,7.88,1.05,12.43.26-4.69.56-9.05,1.01-12.32h.11c.62-4.21,1.52-8.31,2.7-12.32l.62-2.03c.83-2.58,1.77-5.12,2.83-7.62,4.74-10.8,11.03-20.26,18.89-28.36l1.43-1.45c8.24-8.13,17.9-14.55,28.97-19.25,2.5-1.1,5.04-2.07,7.62-2.92l2.03-.65c4.08-1.24,8.26-2.18,12.53-2.82v-.02c3.55-.43,7.62-.74,11.99-1ZM434.31,201.13c-8.98,8.98-16.13,19.51-21.44,31.5-5.16-11.99-12.23-22.52-21.21-31.5-8.98-8.98-19.51-16.05-31.5-21.21,11.99-5.31,22.52-12.45,31.5-21.43,8.98-8.98,16.05-19.51,21.21-31.5,5.31,11.99,12.45,22.52,21.44,31.5,8.98,8.98,19.51,16.13,31.5,21.43-11.99,5.16-22.52,12.23-31.5,21.21Z"/>
    <path class="cls-2" d="M503.63,179.49c-4.64-.26-8.94-.56-12.2-.99v-.03c-4.2-.62-8.3-1.52-12.31-2.7,0,0-.56-.17-1.09-.33-.48-.15-.94-.29-.94-.29-2.58-.83-5.12-1.77-7.62-2.83-11.26-4.94-21.06-11.57-29.39-19.9-8.33-8.33-14.96-18.13-19.9-29.39-1.06-2.5-2.01-5.04-2.83-7.62l-.62-2.03c-1.18-4.01-2.08-8.12-2.7-12.31h-.11c-.44-3.29-.75-7.63-1.01-12.3-.26,4.55-.59,8.79-1.05,12.44h.07c-.64,4.14-1.55,8.21-2.75,12.18l-.64,2.03c-.85,2.58-1.83,5.12-2.92,7.62-4.7,11.07-11.12,20.73-19.25,28.97l-1.44,1.43c-8.11,7.86-17.56,14.15-28.36,18.89-2.5,1.06-5.04,2.01-7.62,2.83l-2.03.62c-4.01,1.18-8.12,2.08-12.31,2.7l-.11,1.02.11-1.02c-3.29.45-7.7.76-12.43,1.02,4.52.26,8.73.59,12.36,1.04,4.76.72,9.4,1.81,13.93,3.28,2.74.89,5.44,1.92,8.1,3.08,11.26,4.78,21.06,11.34,29.39,19.67,8.33,8.33,14.89,18.13,19.67,29.39,1.1,2.5,2.07,5.04,2.92,7.62l.64,2.03c1.21,3.98,2.12,8.05,2.76,12.22h-.07c.45,3.64.78,7.88,1.05,12.43.26-4.69.56-9.05,1.01-12.32h.11c.62-4.21,1.52-8.31,2.7-12.32l.62-2.03c.83-2.58,1.77-5.12,2.83-7.62,4.74-10.8,11.03-20.26,18.89-28.36l1.43-1.45c8.24-8.13,17.9-14.55,28.97-19.25,2.5-1.1,5.04-2.07,7.62-2.92l2.03-.65c4.08-1.24,8.26-2.18,12.53-2.82v-.02c3.55-.43,7.62-.74,11.99-1ZM434.31,201.13c-8.98,8.98-16.13,19.51-21.44,31.5-5.16-11.99-12.23-22.52-21.21-31.5-8.98-8.98-19.51-16.05-31.5-21.21,11.99-5.31,22.52-12.45,31.5-21.43,8.98-8.98,16.05-19.51,21.21-31.5,5.31,11.99,12.45,22.52,21.44,31.5,8.98,8.98,19.51,16.13,31.5,21.43-11.99,5.16-22.52,12.23-31.5,21.21Z"/>
    <path class="cls-4" d="M412.99,87.23c-51.13,0-92.57,41.45-92.57,92.57s41.45,92.57,92.57,92.57,92.57-41.45,92.57-92.57-41.45-92.57-92.57-92.57ZM412.99,270.34c-50,0-90.53-40.53-90.53-90.53s40.53-90.53,90.53-90.53,90.53,40.53,90.53,90.53-40.53,90.53-90.53,90.53Z"/>
  </g>
  <g>
    <path class="cls-9" d="M142.47,501.49c-10.31-5.94-18.49-14.12-24.55-24.55-6.06-10.42-9.09-21.94-9.09-34.55s3.03-24.12,9.09-34.55c6.06-10.43,14.24-18.61,24.55-24.55,10.3-5.94,21.58-8.91,33.83-8.91,9.58,0,18.58,1.7,27.01,5.09,8.43,3.4,15.37,8.18,20.82,14.37l-11.09,11.09c-4.12-5.09-9.4-9-15.82-11.73-6.43-2.73-13.34-4.09-20.73-4.09-9.21,0-17.79,2.21-25.73,6.64-7.94,4.43-14.31,10.67-19.1,18.73-4.79,8.06-7.18,17.37-7.18,27.91s2.39,19.86,7.18,27.92c4.79,8.06,11.18,14.31,19.19,18.73,8,4.43,16.55,6.64,25.64,6.64s16.03-1.36,21.91-4.09c5.88-2.73,10.94-6.33,15.19-10.82,3.15-3.39,5.7-7.48,7.64-12.27,1.94-4.79,3.15-10.09,3.64-15.91h-48.19v-14.37h62.56c.61,3.4.91,6.55.91,9.46,0,8-1.27,15.79-3.82,23.37-2.55,7.58-6.61,14.22-12.19,19.91-12,12.98-27.95,19.46-47.83,19.46-12.25,0-23.52-2.97-33.83-8.91Z"/>
    <path class="cls-9" d="M266.86,504.03c-7.03-4.24-12.52-10.09-16.46-17.55-3.94-7.46-5.91-15.85-5.91-25.19s1.85-17.21,5.55-24.73c3.7-7.52,8.94-13.52,15.73-18,6.79-4.48,14.67-6.73,23.64-6.73s16.97,2.03,23.64,6.09c6.67,4.06,11.79,9.67,15.37,16.82,3.58,7.15,5.37,15.34,5.37,24.55,0,1.82-.18,3.4-.55,4.73h-73.29c.36,7.03,2.06,12.98,5.09,17.82,3.03,4.85,6.88,8.49,11.55,10.91,4.67,2.43,9.55,3.64,14.64,3.64,11.88,0,21.03-5.57,27.46-16.73l13.09,6.37c-4,7.52-9.43,13.46-16.28,17.82-6.85,4.36-15.13,6.55-24.82,6.55-8.85,0-16.79-2.12-23.82-6.37ZM317.42,451.3c-.24-3.88-1.34-7.76-3.27-11.64-1.94-3.88-5-7.15-9.18-9.82-4.18-2.67-9.43-4-15.73-4-7.27,0-13.43,2.33-18.46,7-5.03,4.67-8.34,10.82-9.91,18.46h56.56Z"/>
    <path class="cls-9" d="M342.15,414.74h14.73v13.64h.73c2.67-4.73,6.67-8.67,12-11.82,5.33-3.15,10.97-4.73,16.91-4.73,6.79,0,12.7,1.64,17.73,4.91,5.03,3.27,8.64,7.64,10.82,13.09,3.27-5.46,7.61-9.82,13-13.09,5.39-3.27,11.67-4.91,18.82-4.91,10.67,0,18.7,3.24,24.1,9.73,5.39,6.49,8.09,15.31,8.09,26.46v59.47h-15.28v-57.1c0-8.61-1.76-14.85-5.27-18.73-3.52-3.88-8.73-5.82-15.64-5.82-4.61,0-8.79,1.34-12.55,4-3.76,2.67-6.7,6.24-8.82,10.73-2.12,4.49-3.18,9.34-3.18,14.55v52.38h-15.46v-56.92c0-8.73-1.76-15.03-5.27-18.91-3.52-3.88-8.67-5.82-15.46-5.82-4.61,0-8.79,1.36-12.55,4.09-3.76,2.73-6.7,6.37-8.82,10.91-2.12,4.55-3.18,9.43-3.18,14.64v52.01h-15.46v-92.75Z"/>
    <path class="cls-9" d="M491.64,414.74h14.73v13.64h.73c2.67-4.73,6.67-8.67,12-11.82,5.33-3.15,10.97-4.73,16.91-4.73,6.79,0,12.7,1.64,17.73,4.91,5.03,3.27,8.64,7.64,10.82,13.09,3.27-5.46,7.61-9.82,13-13.09,5.39-3.27,11.67-4.91,18.82-4.91,10.67,0,18.7,3.24,24.1,9.73,5.39,6.49,8.09,15.31,8.09,26.46v59.47h-15.28v-57.1c0-8.61-1.76-14.85-5.27-18.73-3.52-3.88-8.73-5.82-15.64-5.82-4.61,0-8.79,1.34-12.55,4-3.76,2.67-6.7,6.24-8.82,10.73-2.12,4.49-3.18,9.34-3.18,14.55v52.38h-15.46v-56.92c0-8.73-1.76-15.03-5.27-18.91-3.52-3.88-8.67-5.82-15.46-5.82-4.61,0-8.79,1.36-12.55,4.09-3.76,2.73-6.7,6.37-8.82,10.91-2.12,4.55-3.18,9.43-3.18,14.64v52.01h-15.46v-92.75Z"/>
    <path class="cls-9" d="M651.68,506.4c-5.34-2.67-9.46-6.33-12.37-11-2.91-4.67-4.36-9.97-4.36-15.91,0-9.82,3.7-17.49,11.09-23.01,7.39-5.52,16.73-8.27,28.01-8.27,5.57,0,10.76.61,15.55,1.82,4.79,1.21,8.46,2.61,11,4.18v-5.64c0-6.91-2.43-12.46-7.27-16.64-4.85-4.18-10.98-6.27-18.37-6.27-5.22,0-10,1.12-14.37,3.37-4.36,2.25-7.82,5.36-10.37,9.37l-11.64-8.73c3.64-5.57,8.64-9.94,15-13.09,6.36-3.15,13.42-4.73,21.19-4.73,12.61,0,22.52,3.3,29.73,9.91,7.21,6.61,10.82,15.61,10.82,27.01v58.74h-14.73v-13.28h-.73c-2.67,4.49-6.67,8.31-12,11.46-5.34,3.15-11.34,4.73-18,4.73s-12.85-1.34-18.19-4ZM685.87,492.76c4.48-2.67,8.06-6.24,10.73-10.73,2.66-4.48,4-9.39,4-14.73-2.91-1.94-6.49-3.51-10.73-4.73-4.25-1.21-8.73-1.82-13.46-1.82-8.49,0-14.88,1.76-19.19,5.27-4.31,3.52-6.46,8.06-6.46,13.64,0,5.09,1.94,9.21,5.82,12.37,3.88,3.15,8.79,4.73,14.73,4.73,5.21,0,10.06-1.33,14.55-4Z"/>
  </g>
</svg>